# xmcd
#
# Track frame offsets:
#	150
#	17377
#	31750
#	46217
#	65912
#	81690
#	101175
#	116232
#	130037
#	148435
#	161647
#	182577
#	202955
#	218575
#
# Disc length: 3106 seconds
#
# Revision: 1
# Processed by: cddbd v1.5.1PL0 Copyright (c) Steve Scherf et al.
# Submitted via: CDex 1.50Beta5
#
DISCID=cc0c200e
DTITLE=ビリー・バンバン - ビリー・バンバン
DYEAR=1900
DGENRE=Folk
TTITLE0=白いブランコ
TTITLE1=悲しみの中に
TTITLE2=ミドリーヌ
TTITLE3=子供たちをよろしく
TTITLE4=白い風とすずらん
TTITLE5=青春のひとかけら
TTITLE6=愛すべき僕たち
TTITLE7=さよならをするために
TTITLE8=やさしい雨
TTITLE9=みにくいあひるの子
TTITLE10=白い馬に乗って
TTITLE11=まるで秋風みたい
TTITLE12=そして君と僕
TTITLE13=れんげ草
EXTD=
EXTT0=
EXTT1=
EXTT2=
EXTT3=
EXTT4=
EXTT5=
EXTT6=
EXTT7=
EXTT8=
EXTT9=
EXTT10=
EXTT11=
EXTT12=
EXTT13=
PLAYORDER=
